<svg xmlns="http://www.w3.org/2000/svg" xmlns:xlink="http://www.w3.org/1999/xlink" xmlns:serif="http://www.serif.com/" viewBox="0 0 32 40" version="1.1" xml:space="preserve" style="" x="0px" y="0px" fill-rule="evenodd" clip-rule="evenodd" stroke-linejoin="round" stroke-miterlimit="2"><g transform="matrix(1,0,0,1,-48,-384)"><path d="M64,385C55.721,385 49,391.721 49,400C49,408.279 55.721,415 64,415C72.279,415 79,408.279 79,400C79,391.721 72.279,385 64,385ZM60.941,397.594C60.107,398.13 59.606,399.033 59.606,400C59.606,400.967 60.107,401.87 60.941,402.406C62.799,403.599 65.346,405.236 67.336,406.514C68.256,407.106 69.44,407.161 70.416,406.658C71.391,406.155 72,405.175 72,404.109C72,401.635 72,398.365 72,395.891C72,394.825 71.391,393.845 70.416,393.342C69.44,392.839 68.256,392.894 67.336,393.486L60.941,397.594ZM56,394.217L56,405.783C56,406.315 56.448,406.747 57,406.747C57.552,406.747 58,406.315 58,405.783L58,394.217C58,393.685 57.552,393.253 57,393.253C56.448,393.253 56,393.685 56,394.217ZM62.051,399.198L68.445,395.089C68.752,394.892 69.147,394.874 69.472,395.042C69.797,395.209 70,395.536 70,395.891C70,395.891 70,404.109 70,404.109C70,404.464 69.797,404.791 69.472,404.958C69.147,405.126 68.752,405.108 68.445,404.911L62.051,400.802C61.773,400.623 61.606,400.322 61.606,400C61.606,399.678 61.773,399.377 62.051,399.198Z"/></g><text x="0" y="47" fill="#000000" font-size="5px" font-weight="bold" font-family="'Helvetica Neue', Helvetica, Arial-Unicode, Arial, Sans-serif">Created by Mila Karmila</text><text x="0" y="52" fill="#000000" font-size="5px" font-weight="bold" font-family="'Helvetica Neue', Helvetica, Arial-Unicode, Arial, Sans-serif">from the Noun Project</text></svg>