<svg xmlns:dc="http://purl.org/dc/elements/1.1/" xmlns:cc="http://creativecommons.org/ns#" xmlns:rdf="http://www.w3.org/1999/02/22-rdf-syntax-ns#" xmlns:svg="http://www.w3.org/2000/svg" xmlns="http://www.w3.org/2000/svg" xmlns:sodipodi="http://sodipodi.sourceforge.net/DTD/sodipodi-0.dtd" xmlns:inkscape="http://www.inkscape.org/namespaces/inkscape" viewBox="0 0 16.933333 21.1666675" version="1.1" enable-background="new" x="0px" y="0px"><svg:g><svg:path style="color:#000000;font-style:normal;font-variant:normal;font-weight:normal;font-stretch:normal;font-size:medium;line-height:normal;font-family:sans-serif;font-variant-ligatures:normal;font-variant-position:normal;font-variant-caps:normal;font-variant-numeric:normal;font-variant-alternates:normal;font-feature-settings:normal;text-indent:0;text-align:start;text-decoration:none;text-decoration-line:none;text-decoration-style:solid;text-decoration-color:#000000;letter-spacing:normal;word-spacing:normal;text-transform:none;writing-mode:lr-tb;direction:ltr;text-orientation:mixed;dominant-baseline:auto;baseline-shift:baseline;text-anchor:start;white-space:normal;shape-padding:0;clip-rule:nonzero;display:inline;overflow:visible;visibility:visible;opacity:1;isolation:auto;mix-blend-mode:normal;color-interpolation:sRGB;color-interpolation-filters:linearRGB;solid-color:#000000;solid-opacity:1;vector-effect:none;fill:#000000;fill-opacity:1;fill-rule:nonzero;stroke:none;stroke-width:0.52916664;stroke-linecap:round;stroke-linejoin:round;stroke-miterlimit:4;stroke-dasharray:none;stroke-dashoffset:0;stroke-opacity:1;paint-order:normal;color-rendering:auto;image-rendering:auto;shape-rendering:auto;text-rendering:auto;enable-background:accumulate" d="m 2.4998482,3.0468422 c -0.798891,0 -1.451075,0.650117 -1.451075,1.4490073 v 1.1761554 1.5523602 5.2131179 c 0,0.79889 0.652184,1.449008 1.451075,1.449008 H 14.433485 c 0.798891,0 1.451075,-0.650118 1.451075,-1.449008 V 7.2243651 5.6720049 4.4958495 c 0,-0.7988903 -0.652184,-1.4490073 -1.451075,-1.4490073 z m 0,0.5291667 H 14.433485 c 0.51489,0 0.921909,0.4049556 0.921909,0.9198406 V 5.4063881 H 1.5779392 V 4.4958495 c 0,-0.514885 0.407017,-0.9198406 0.921909,-0.9198406 z M 1.5779392,5.9355548 H 15.355394 V 6.958748 H 1.5779392 Z m 0,1.5528766 H 15.355394 v 4.9490516 c 0,0.514886 -0.407019,0.919841 -0.921909,0.919841 H 2.4998482 c -0.514892,0 -0.921909,-0.404955 -0.921909,-0.919841 z m 9.0842018,1.6350427 c -0.399971,4e-5 -0.7837838,0.159014 -1.0666048,0.441833 -0.282818,0.28282 -0.441793,0.6666339 -0.441833,1.0666019 4e-5,0.399968 0.159015,0.783782 0.441833,1.066602 0.282821,0.28282 0.6666338,0.44231 1.0666048,0.44235 0.320667,-2.08e-4 0.629777,-0.104181 0.885732,-0.290422 0.256342,0.186589 0.566312,0.290422 0.887285,0.290422 0.400019,0 0.783741,-0.158976 1.066602,-0.441834 0.28285,-0.282857 0.441833,-0.667098 0.441833,-1.067118 0,-0.400021 -0.158983,-0.7837449 -0.441833,-1.0666019 -0.282861,-0.282857 -0.666583,-0.441833 -1.066602,-0.441833 -0.321032,0 -0.630914,0.103768 -0.887285,0.290421 -0.255955,-0.186241 -0.565065,-0.290213 -0.885732,-0.290421 z m -7.4005838,0.402042 a 0.26464871,0.26464871 0 1 0 0,0.5291669 h 3.33003 a 0.26464871,0.26464871 0 1 0 0,-0.5291669 z m 7.4005838,0.127124 c 0.183798,1.38e-4 0.361693,0.05202 0.515212,0.147278 -0.03818,0.05771 -0.07147,0.118204 -0.101285,0.180351 -0.0035,0.0074 -0.0069,0.01479 -0.01034,0.02222 -0.0573,0.124597 -0.09715,0.25645 -0.118856,0.392741 -0.0016,0.01018 -0.0032,0.02026 -0.0047,0.03049 -0.0094,0.06813 -0.01602,0.136638 -0.01602,0.206189 0,0.06955 0.0066,0.138576 0.01602,0.206706 0.0014,0.01022 0.003,0.02031 0.0047,0.03049 0.02171,0.13629 0.06156,0.268144 0.118856,0.392741 0.0034,0.0074 0.0068,0.01484 0.01034,0.02222 0.02971,0.06193 0.06274,0.122303 0.100769,0.179834 -0.153432,0.09511 -0.331052,0.147139 -0.514696,0.147278 -0.259771,-5.4e-5 -0.508776,-0.103118 -0.6924648,-0.286805 -0.1837,-0.183699 -0.286766,-0.432676 -0.286806,-0.692464 4e-5,-0.259788 0.103106,-0.508249 0.286806,-0.6919469 0.1836888,-0.183687 0.4326938,-0.287268 0.6924648,-0.287321 z m 1.773017,0 c 0.25984,0 0.508733,0.103069 0.692463,0.286804 0.18374,0.1837359 0.286805,0.4326239 0.286805,0.6924649 0,0.259841 -0.103065,0.508729 -0.286805,0.692464 -0.18373,0.183736 -0.432623,0.287321 -0.692463,0.287321 -0.259842,0 -0.508735,-0.103585 -0.692464,-0.287321 -0.0017,-0.0017 -0.003,-0.0035 -0.0047,-0.0052 a 0.26468332,0.26468332 0 0 0 -5.16e-4,-10e-4 c -0.18012,-0.183055 -0.281416,-0.429458 -0.281635,-0.686263 2.19e-4,-0.256805 0.101526,-0.502692 0.281635,-0.6857469 a 0.26468332,0.26468332 0 0 0 0.0083,-0.0093 c 0.18346,-0.181932 0.430901,-0.284223 0.68938,-0.284223 z M 3.2362362,10.956954 a 0.26495306,0.26495306 0 0 0 0.02532,0.529166 h 1.423686 a 0.2646485,0.2646485 0 1 0 0,-0.529166 h -1.423686 a 0.26460979,0.26460979 0 0 0 -0.02532,0 z"/></svg:g><text x="0" y="31.933334" fill="#000000" font-size="5px" font-weight="bold" font-family="'Helvetica Neue', Helvetica, Arial-Unicode, Arial, Sans-serif">Created by Larea</text><text x="0" y="36.933334" fill="#000000" font-size="5px" font-weight="bold" font-family="'Helvetica Neue', Helvetica, Arial-Unicode, Arial, Sans-serif">from the Noun Project</text></svg>