<svg xmlns="http://www.w3.org/2000/svg" viewBox="0 0 24 30" x="0px" y="0px"><title>protection, security, safe, shield, check</title><g data-name="Layer 2"><path d="M11.4,12.879,14.442,9.5a.751.751,0,1,1,1.116,1l-3.6,4a.751.751,0,0,1-1.115,0l-2.4-2.667a.751.751,0,1,1,1.116-1Zm9.347-6.816-.6,7.206a8.731,8.731,0,0,1-5.272,7.315L12.3,21.689a.749.749,0,0,1-.592,0L9.126,20.584a8.731,8.731,0,0,1-5.272-7.315l-.6-7.206A.751.751,0,0,1,3.736,5.3l8-3a.739.739,0,0,1,.528,0l8,3A.751.751,0,0,1,20.747,6.063ZM19.2,6.5,12,3.8,4.8,6.5l.553,6.641A7.234,7.234,0,0,0,9.718,19.2L12,20.184l2.282-.979a7.234,7.234,0,0,0,4.37-6.061Z"/></g><text x="0" y="39" fill="#000000" font-size="5px" font-weight="bold" font-family="'Helvetica Neue', Helvetica, Arial-Unicode, Arial, Sans-serif">Created by Dwi ridwanto</text><text x="0" y="44" fill="#000000" font-size="5px" font-weight="bold" font-family="'Helvetica Neue', Helvetica, Arial-Unicode, Arial, Sans-serif">from the Noun Project</text></svg>